{"scene":0,"asset":{"generator":"ImageToStl.com","version":"2.0"},"scenes":[{"name":"Scene","nodes":[0]}],"nodes":[{"name":"Node0","children":[1]},{"name":"Node1","mesh":0}],"materials":[{"name":"x1","pbrMetallicRoughness":{"baseColorFactor":[0.85,0.85,0.85,1.0],"metallicFactor":0.05,"roughnessFactor":0.5},"doubleSided":true}],"meshes":[{"name":"Mesh0","primitives":[{"indices":2,"material":0,"attributes":{"POSITION":0,"NORMAL":1}}]}],"accessors":[{"bufferView":0,"componentType":5126,"count":11496,"type":"VEC3","min":[-1.988742,-0.84489304,-1.220775],"max":[1.8527054,0.84489304,1.0154811]},{"bufferView":1,"componentType":5126,"count":11496,"type":"VEC3"},{"bufferView":2,"componentType":5123,"count":11544,"type":"SCALAR"}],"bufferViews":[{"target":34962,"buffer":0,"byteLength":137952,"byteOffset":0},{"target":34962,"buffer":0,"byteLength":137952,"byteOffset":137952},{"target":34963,"buffer":0,"byteLength":23088,"byteOffset":275904}],"buffers":[{"byteLength":298992,"uri":"data:application/octet-stream;base64,"}]}